<svg width="40" height="40" viewBox="0 0 40 40" fill="none" xmlns="http://www.w3.org/2000/svg">
  <g fill="white">
    <path d="M10.5 13.42a2.2 2.2 0 0 1 2.54-1.77l10.11 1.7a2.2 2.2 0 0 1 1.78 2.54l-2.04 12.16a2.2 2.2 0 0 1-2.54 1.77l-10.11-1.7a2.2 2.2 0 0 1-1.78-2.54z"/>
    <path d="M14.05 16.34c.88 0 1.6.71 1.6 1.6 0 .87-.72 1.59-1.6 1.59-.87 0-1.58-.72-1.58-1.6 0-.87.71-1.59 1.58-1.59Zm5.53 5.18 2.3 1.94c.31.26.13.76-.28.76h-6.13c-.41 0-.59-.5-.28-.76l2.3-1.94a1.64 1.64 0 0 1 2.1 0Z" fill="#4A4A4A"/>
    <path d="M17.35 10.78a2.2 2.2 0 0 1 2.2-2.2h10.26a2.2 2.2 0 0 1 2.2 2.2V23.1a2.2 2.2 0 0 1-2.2 2.2H19.55a2.2 2.2 0 0 1-2.2-2.2z"/>
    <path d="M20.55 12.3h8.25v9.25h-8.25z" fill="#4A4A4A"/>
    <path d="M22.05 13.74h2.12v2.54h-2.12zm3.15 0h2.12v2.54H25.2zm-3.15 3.52h5.27v2.86h-5.27z" fill="white"/>
    <path d="M29.72 27.85H20.6a1.55 1.55 0 1 1 0-3.1h9.12a1.55 1.55 0 1 1 0 3.1Z"/>
    <path d="m31.12 8.05.58-1.48.58 1.48 1.48.58-1.48.58-.58 1.48-.58-1.48-1.48-.58z"/>
  </g>
</svg>
