<svg width="40" height="40" viewBox="0 0 40 40" fill="none" xmlns="http://www.w3.org/2000/svg">
  <g fill="white">
    <path d="M13.807 8.9a2.7 2.7 0 0 1 3.669-.988l8.624 4.98a2.7 2.7 0 0 1 .987 3.67l-4.728 8.189a2.7 2.7 0 0 1-3.67.988l-8.623-4.98a2.7 2.7 0 0 1-.988-3.67z"/>
    <path d="M20.428 15.722a1.27 1.27 0 1 0 2.2-1.271 1.27 1.27 0 0 0-2.2 1.27Z" fill="#4A4A4A"/>
    <path d="M16.37 22.751a1.27 1.27 0 1 0 2.2-1.27 1.27 1.27 0 0 0-2.2 1.27Z" fill="#4A4A4A"/>
    <path d="M12.618 14.227a1.27 1.27 0 1 0 2.2-1.271 1.27 1.27 0 0 0-2.2 1.27Z" fill="#4A4A4A"/>
    <path d="M23.455 21.208a1.27 1.27 0 1 0 2.2-1.27 1.27 1.27 0 0 0-2.2 1.27Z" fill="#4A4A4A"/>
    <path d="M17.5 15.39a1.27 1.27 0 1 0 2.2-1.271 1.27 1.27 0 0 0-2.2 1.27Z" fill="#4A4A4A"/>
    <path d="M12.164 16.911a2.5 2.5 0 0 1 2.5-2.5h9.879a2.5 2.5 0 0 1 2.5 2.5v9.878a2.5 2.5 0 0 1-2.5 2.5h-9.879a2.5 2.5 0 0 1-2.5-2.5z"/>
    <circle cx="17.467" cy="18.989" r="1.35" fill="#4A4A4A"/>
    <circle cx="21.769" cy="18.989" r="1.35" fill="#4A4A4A"/>
    <circle cx="17.467" cy="24.711" r="1.35" fill="#4A4A4A"/>
    <circle cx="21.769" cy="24.711" r="1.35" fill="#4A4A4A"/>
  </g>
</svg>
