<svg width="40" height="40" viewBox="0 0 40 40" fill="none" xmlns="http://www.w3.org/2000/svg">
  <g fill="white">
    <path d="M27.84 10.2c2.17.45 3.68 1.74 4.86 3.7.3.49.24 1.13-.14 1.55l-2.36 2.5 2.36 2.5c.38.41.44 1.05.14 1.54-1.25 2.09-2.87 3.4-5.23 3.8l-2.94.49-2.94 3.05c-1.12 1.16-2.87 1.34-4.21.43l-4.05-2.72-3.63 1.6a1.08 1.08 0 0 1-1.51-1.13l.49-4.14-2.47-3.14a1.08 1.08 0 0 1 .43-1.62l4.17-1.84 1.38-4.29a1.08 1.08 0 0 1 1.52-.61l4.4 2.23 3.93-1.47a5.24 5.24 0 0 1 2.9-.18z"/>
    <circle cx="24.66" cy="16.3" r="1.35" fill="#4A4A4A"/>
    <path d="M20.5 18.56c2.28 0 4.16 1.4 5.13 3.56.13.3-.1.63-.42.63h-9.43c-.33 0-.55-.34-.42-.64.98-2.15 2.86-3.55 5.14-3.55Z" fill="#4A4A4A"/>
    <path d="M31.87 8.5c0 2.18-1.3 3.87-3.1 4.85" stroke="white" stroke-width="1.6" stroke-linecap="round"/>
    <circle cx="30.38" cy="6.46" r="1.52"/>
    <path d="M9.45 13.64c1.32-.8 2.53-1.17 3.96-1.2" stroke="white" stroke-width="1.4" stroke-linecap="round"/>
  </g>
</svg>
