<svg width="40" height="40" viewBox="0 0 40 40" fill="none" xmlns="http://www.w3.org/2000/svg">
  <g fill="white">
    <path d="M11.4 8.2h16.7a2.6 2.6 0 0 1 2.6 2.6v14.4a2.6 2.6 0 0 1-2.6 2.6H11.4a2.6 2.6 0 0 1-2.6-2.6V10.8a2.6 2.6 0 0 1 2.6-2.6Z"/>
    <path d="M16.06 10.17h7.37v2.28h-7.37z" fill="#4A4A4A"/>
    <path d="M12.25 13.9h15a1.5 1.5 0 0 1 1.5 1.5v6.76a1.5 1.5 0 0 1-1.5 1.5h-15a1.5 1.5 0 0 1-1.5-1.5V15.4a1.5 1.5 0 0 1 1.5-1.5Z" fill="#4A4A4A"/>
    <path d="M15.06 16.66h2.35v4.2h-2.35zm3.76 0h2.35v4.2h-2.35zm3.77 0h2.35v4.2h-2.35z" fill="white"/>
    <path d="M31.68 13.44c1 0 1.8.8 1.8 1.8v4.77c0 .99-.8 1.8-1.8 1.8h-1.3v-8.37z"/>
    <path d="M14.85 30.7h9.92a1.2 1.2 0 1 1 0 2.4h-9.92a1.2 1.2 0 1 1 0-2.4Z"/>
    <path d="M18.13 27.78h3.34v3.52h-3.34z"/>
  </g>
</svg>
