<svg width="40" height="40" viewBox="0 0 40 40" fill="none" xmlns="http://www.w3.org/2000/svg">
  <g fill="white">
    <circle cx="20" cy="20" r="15"/>
    <path d="M20 11.2 24.15 14l-1.57 4.84h-5.16L15.85 14 20 11.2Z" fill="#4A4A4A"/>
    <path d="M12.55 15.18 15.56 14.3l1.63 4.84-3.2 2.33-2.66-1.98a11.8 11.8 0 0 1 1.22-4.31Z" fill="#4A4A4A"/>
    <path d="M27.45 15.18a11.8 11.8 0 0 1 1.22 4.31L26 21.47l-3.2-2.33 1.63-4.84 3.02.88Z" fill="#4A4A4A"/>
    <path d="M14.1 22.48 17.3 20.15h5.4l3.2 2.33-1.2 4.77H15.3l-1.2-4.77Z" fill="#4A4A4A"/>
    <path d="M16.48 28.45h7.05l1.02 3.36A12.98 12.98 0 0 1 20 32.8c-1.58 0-3.09-.28-4.48-.8l.96-3.56Z" fill="#4A4A4A"/>
    <path d="M10.8 20c0 .35.02.68.06 1.02l2.56 1.9-.98 3.93A13.1 13.1 0 0 1 10.8 20Z" fill="#4A4A4A"/>
    <path d="M29.2 20a13.1 13.1 0 0 1-1.64 6.85l-.98-3.93 2.56-1.9c.04-.34.06-.67.06-1.02Z" fill="#4A4A4A"/>
  </g>
</svg>
